HIERARCHY
ROOT Hips
{
	OFFSET 0.00000 0.00000 0.00000
	CHANNELS 6 Xposition Yposition Zposition Zrotation Yrotation Xrotation 
	JOINT LHipJoint
	{
		OFFSET 0 0 0
		CHANNELS 3 Zrotation Yrotation Xrotation
		JOINT LeftUpLeg
		{
			OFFSET 1.48831 -1.59570 0.95625
			CHANNELS 3 Zrotation Yrotation Xrotation
			JOINT LeftLeg
			{
				OFFSET 2.20856 -6.06797 0.00000
				CHANNELS 3 Zrotation Yrotation Xrotation
				JOINT LeftFoot
				{
					OFFSET 2.62924 -7.22379 0.00000
					CHANNELS 3 Zrotation Yrotation Xrotation
					JOINT LeftToeBase
					{
						OFFSET 0.16802 -0.46163 2.41673
						CHANNELS 3 Zrotation Yrotation Xrotation
						End Site
						{
							OFFSET 0.00000 -0.00000 1.23760
						}
					}
				}
			}
		}
	}
	JOINT RHipJoint
	{
		OFFSET 0 0 0
		CHANNELS 3 Zrotation Yrotation Xrotation
		JOINT RightUpLeg
		{
			OFFSET -1.56796 -1.59570 0.95625
			CHANNELS 3 Zrotation Yrotation Xrotation
			JOINT RightLeg
			{
				OFFSET -2.29239 -6.29829 0.00000
				CHANNELS 3 Zrotation Yrotation Xrotation
				JOINT RightFoot
				{
					OFFSET -2.66963 -7.33475 0.00000
					CHANNELS 3 Zrotation Yrotation Xrotation
					JOINT RightToeBase
					{
						OFFSET -0.18185 -0.49964 2.34359
						CHANNELS 3 Zrotation Yrotation Xrotation
						End Site
						{
							OFFSET -0.00000 -0.00000 1.20477
						}
					}
				}
			}
		}
	}
	JOINT LowerBack
	{
		OFFSET 0 0 0
		CHANNELS 3 Zrotation Yrotation Xrotation
		JOINT Spine
		{
			OFFSET 0.03505 2.15832 -0.34324
			CHANNELS 3 Zrotation Yrotation Xrotation
			JOINT Spine1
			{
				OFFSET -0.01089 2.17963 0.04689
				CHANNELS 3 Zrotation Yrotation Xrotation
				JOINT Neck
				{
					OFFSET 0 0 0
					CHANNELS 3 Zrotation Yrotation Xrotation
					JOINT Neck1
					{
						OFFSET 0.04686 1.69404 0.22159
						CHANNELS 3 Zrotation Yrotation Xrotation
						JOINT Head
						{
							OFFSET 0.00265 1.69305 -0.01513
							CHANNELS 3 Zrotation Yrotation Xrotation
							End Site
							{
								OFFSET -0.00415 1.80215 -0.03034
							}
						}
					}
				}
				JOINT LeftShoulder
				{
					OFFSET 0 0 0
					CHANNELS 3 Zrotation Yrotation Xrotation
					JOINT LeftArm
					{
						OFFSET 3.67184 1.11724 -0.19002
						CHANNELS 3 Zrotation Yrotation Xrotation
						JOINT LeftForeArm
						{
							OFFSET 5.17714 -0.00000 -0.00000
							CHANNELS 3 Zrotation Yrotation Xrotation
							JOINT LeftHand
							{
								OFFSET 3.43679 -0.00000 -0.00000
								CHANNELS 3 Zrotation Yrotation Xrotation
								JOINT LeftFingerBase
								{
									OFFSET 0 0 0
									CHANNELS 3 Zrotation Yrotation Xrotation
									JOINT LeftHandIndex1
									{
										OFFSET 0.57312 -0.00000 -0.00000
										CHANNELS 3 Zrotation Yrotation Xrotation
										End Site
										{
											OFFSET 0.46206 -0.00000 -0.00000
										}
									}
								}
								JOINT LThumb
								{
									OFFSET 0 0 0
									CHANNELS 3 Zrotation Yrotation Xrotation
									End Site
									{
										OFFSET 0.46912 -0.00000 0.46912
									}
								}
							}
						}
					}
				}
				JOINT RightShoulder
				{
					OFFSET 0 0 0
					CHANNELS 3 Zrotation Yrotation Xrotation
					JOINT RightArm
					{
						OFFSET -3.59596 0.95831 -0.26050
						CHANNELS 3 Zrotation Yrotation Xrotation
						JOINT RightForeArm
						{
							OFFSET -5.23908 -0.00000 -0.00000
							CHANNELS 3 Zrotation Yrotation Xrotation
							JOINT RightHand
							{
								OFFSET -3.46485 -0.00000 -0.00000
								CHANNELS 3 Zrotation Yrotation Xrotation
								JOINT RightFingerBase
								{
									OFFSET 0 0 0
									CHANNELS 3 Zrotation Yrotation Xrotation
									JOINT RightHandIndex1
									{
										OFFSET -0.60875 -0.00000 -0.00000
										CHANNELS 3 Zrotation Yrotation Xrotation
										End Site
										{
											OFFSET -0.49079 -0.00000 -0.00000
										}
									}
								}
								JOINT RThumb
								{
									OFFSET 0 0 0
									CHANNELS 3 Zrotation Yrotation Xrotation
									End Site
									{
										OFFSET -0.49829 -0.00000 0.49829
									}
								}
							}
						}
					}
				}
			}
		}
	}
}
MOTION
Frames: 16
Frame Time: .0083333
3.7626 16.3058 -4.006 0 0 0 0 0 0 -21 0 0 0 0 0 0 0 0 0 0 0 0 0 0 21 0 0 0 0 0 0 0 0 0 0 0 0 0 0 0 0 0 0 0 0 0 0 -16 0 0 21 0 0 11 0 0 0 -8 0 0 0 0 0 0 0 0 0 0 0 0 0 0 0 0 0 0 0 0 8 0 0 0 0 0 0 0 0 0 0 0 0 0 0 0 0 0
3.7626 16.3058 -4.0060 30.0804 -80.4238 -26.5194 0.0000 0.0000 0.0000 -30.5051 23.6428 -16.3285 1.4567 7.6287 21.5917 -0.3408 -18.5694 -9.7583 0.0103 0.6542 1.7979 0.0000 0.0000 0.0000 7.0372 -1.0179 -31.4066 -5.8847 -14.3157 44.5172 -1.0105 -7.9998 -23.4822 -0.0080 -0.5792 1.5916 -3.8910 -0.8477 -1.8079 -3.7910 -1.1332 -0.8871 -1.7324 -0.5949 0.0992 -7.2114 -7.1969 -3.9277 21.9066 -9.6631 -4.4253 7.5810 -4.9925 0.9094 -0.0000 -0.0000 0.0000 -45.8500 30.0777 90.6448 93.4830 -59.9541 -63.0159 -0.0000 -0.0000 3.6573 61.9866 -31.8532 -44.7694 -7.1250 0.0000 -0.0000 15.9457 -21.2729 -21.2753 -0.0000 -0.0000 0.0000 61.8769 -38.2479 82.6118 -73.2793 58.9168 -45.5721 0.0000 0.0000 21.9103 -66.5817 16.6564 -33.4961 7.1250 -0.0000 -0.0000 -23.1200 4.4991 -27.0939
3.7650 16.3107 -4.0090 30.5374 -80.4441 -26.9419 0.0000 0.0000 0.0000 -30.5375 23.4552 -16.2466 1.4477 7.6059 21.5233 -0.3375 -18.4559 -9.6889 0.0116 0.6940 1.9073 0.0000 0.0000 0.0000 6.9962 -1.0156 -31.4078 -5.8632 -14.2944 44.4301 -1.0065 -7.9805 -23.4341 -0.0083 -0.5893 1.6194 -3.9470 -0.8475 -1.8383 -3.8015 -1.1306 -0.8845 -1.7125 -0.5940 0.1197 -7.2640 -7.2429 -3.8699 22.0030 -9.7114 -4.5489 7.6225 -5.0274 0.8806 0.0000 0.0000 0.0000 -45.8428 30.1028 90.6191 93.4902 -59.9539 -63.0221 -0.0000 -0.0000 3.6566 61.7510 -31.8642 -44.4950 -7.1250 0.0000 -0.0000 15.8207 -21.1015 -21.0729 0.0000 0.0000 0.0000 61.8542 -38.3130 82.5619 -73.3591 58.9273 -45.6404 0.0000 0.0000 21.9351 -66.4814 16.6714 -33.3928 7.1250 -0.0000 -0.0000 -23.0637 4.4313 -26.9897
3.7698 16.3150 -4.0137 30.8565 -80.5026 -27.2291 0.0000 0.0000 0.0000 -30.5358 23.2518 -16.1611 1.4354 7.5749 21.4300 -0.3187 -18.2546 -9.7033 0.0106 0.6657 1.8294 0.0000 0.0000 0.0000 6.9971 -0.9326 -31.4357 -5.8559 -14.2873 44.4007 -1.0062 -7.9886 -23.4373 -0.0093 -0.6236 1.7136 -3.9777 -0.8283 -1.8424 -3.8026 -1.1033 -0.8688 -1.6962 -0.5807 0.1386 -7.2391 -7.3098 -3.8179 22.0553 -9.7830 -4.7195 7.6361 -5.0771 0.8360 -0.0000 0.0000 0.0000 -45.8343 30.1113 90.5564 93.5753 -59.9516 -63.0958 -0.0000 -0.0000 3.4838 61.5763 -32.1116 -44.4840 -7.1250 0.0000 -0.0000 15.6392 -21.2460 -20.8378 -0.0000 0.0000 0.0000 61.8559 -38.3645 82.5155 -73.4434 58.9385 -45.7126 0.0000 0.0000 21.9380 -66.4291 16.6599 -33.3097 7.1250 -0.0000 -0.0000 -23.0399 4.3640 -26.9309
3.7761 16.3137 -4.0181 31.3773 -80.4980 -27.7279 0.0000 0.0000 0.0000 -30.6155 23.1709 -16.1128 1.4227 7.5429 21.3341 -0.3047 -18.1935 -9.7976 0.0101 0.6477 1.7799 0.0000 0.0000 0.0000 6.9272 -0.9556 -31.5004 -5.8542 -14.2856 44.3939 -1.0016 -7.9552 -23.3734 -0.0087 -0.6024 1.6553 -4.0423 -0.8169 -1.8396 -3.8339 -1.0863 -0.8347 -1.6923 -0.5731 0.1725 -7.2298 -7.3591 -3.8094 22.1233 -9.8334 -4.8643 7.6564 -5.1126 0.8050 -0.0000 -0.0000 0.0000 -45.8333 30.1487 90.4774 93.6615 -59.9493 -63.1704 -0.0000 -0.0000 3.4647 61.2687 -32.0789 -44.0920 -7.1250 0.0000 -0.0000 15.4940 -20.9727 -20.5930 -0.0000 -0.0000 0.0000 61.8594 -38.3674 82.5246 -73.4370 58.9376 -45.7072 0.0000 0.0000 21.8900 -66.4680 16.7342 -33.4722 7.1250 -0.0000 -0.0000 -23.0392 4.5238 -26.9908
3.7824 16.3137 -4.0228 31.6485 -80.5202 -27.9741 0.0000 0.0000 0.0000 -30.6355 22.9993 -16.0304 1.4099 7.5103 21.2364 -0.2809 -18.0453 -9.9173 0.0097 0.6364 1.7490 0.0000 0.0000 0.0000 6.9123 -0.9472 -31.5705 -5.8570 -14.2883 44.4051 -0.9970 -7.9493 -23.3304 -0.0081 -0.5809 1.5963 -4.0695 -0.8049 -1.8345 -3.8446 -1.0690 -0.8081 -1.6880 -0.5649 0.1974 -7.2265 -7.4081 -3.7851 22.1960 -9.8820 -5.0190 7.6804 -5.1486 0.7688 -0.0000 -0.0000 0.0000 -45.8307 30.1750 90.4145 93.7241 -59.9475 -63.2246 -0.0000 -0.0000 3.4502 61.0117 -32.0647 -43.7768 -7.1250 0.0000 -0.0000 15.3679 -20.7608 -20.3846 -0.0000 -0.0000 0.0000 61.8522 -38.3843 82.5186 -73.4685 58.9418 -45.7342 0.0000 0.0000 21.8638 -66.4544 16.7810 -33.5267 7.1250 -0.0000 -0.0000 -23.0189 4.5893 -26.9874
3.7898 16.3119 -4.0279 31.8009 -80.5386 -28.1050 0.0000 0.0000 0.0000 -30.6445 22.8017 -15.9277 1.3951 7.4724 21.1227 -0.2471 -17.8614 -10.1137 0.0093 0.6241 1.7149 0.0000 0.0000 0.0000 6.9110 -0.9513 -31.6662 -5.8686 -14.2998 44.4522 -0.9924 -7.9414 -23.2847 -0.0072 -0.5480 1.5059 -4.0821 -0.7931 -1.8169 -3.8520 -1.0526 -0.7779 -1.6884 -0.5571 0.2186 -7.2189 -7.4533 -3.7656 22.2684 -9.9246 -5.1774 7.7039 -5.1818 0.7313 0.0000 0.0000 0.0000 -45.8283 30.2004 90.3544 93.7797 -59.9459 -63.2727 -0.0000 -0.0000 3.4678 60.7463 -32.0032 -43.4160 -7.1250 0.0000 -0.0000 15.2551 -20.4907 -20.1865 0.0000 0.0000 0.0000 61.8412 -38.3896 82.5282 -73.4916 58.9448 -45.7540 0.0000 0.0000 21.8313 -66.4525 16.8331 -33.6038 7.1250 -0.0000 -0.0000 -23.0033 4.6742 -26.9978
3.7983 16.3082 -4.0331 31.8487 -80.5465 -28.1371 0.0000 0.0000 0.0000 -30.6477 22.5657 -15.8123 1.3820 7.4387 21.0219 -0.2019 -17.6381 -10.3990 0.0090 0.6140 1.6873 0.0000 0.0000 0.0000 6.9177 -0.9834 -31.7776 -5.8845 -14.3155 44.5166 -0.9871 -7.9235 -23.2265 -0.0063 -0.5137 1.4116 -4.0839 -0.7826 -1.7827 -3.8573 -1.0389 -0.7455 -1.6923 -0.5506 0.2326 -7.2104 -7.4944 -3.7479 22.3391 -9.9611 -5.3368 7.7272 -5.2120 0.6928 -0.0000 -0.0000 0.0000 -45.8246 30.2236 90.3016 93.8200 -59.9448 -63.3076 -0.0000 -0.0000 3.5168 60.4718 -31.9067 -43.0184 -7.1250 0.0000 -0.0000 15.1504 -20.1752 -19.9931 -0.0000 -0.0000 0.0000 61.8211 -38.3888 82.5520 -73.5142 58.9477 -45.7733 0.0000 0.0000 21.8013 -66.4560 16.8805 -33.6803 7.1250 -0.0000 -0.0000 -22.9918 4.7562 -27.0128
3.8080 16.3028 -4.0385 31.7729 -80.5482 -28.0507 0.0000 0.0000 0.0000 -30.6437 22.2948 -15.6899 1.3706 7.4092 20.9334 -0.1455 -17.3624 -10.7586 0.0086 0.6002 1.6493 0.0000 0.0000 0.0000 6.9372 -1.0361 -31.9073 -5.9064 -14.3371 44.6051 -0.9823 -7.8934 -23.1632 -0.0056 -0.4821 1.3248 -4.0714 -0.7726 -1.7314 -3.8579 -1.0270 -0.7107 -1.6992 -0.5447 0.2395 -7.1982 -7.5322 -3.7310 22.4056 -9.9924 -5.4987 7.7489 -5.2398 0.6525 0.0000 0.0000 0.0000 -45.8211 30.2369 90.2558 93.8423 -59.9441 -63.3269 -0.0000 -0.0000 3.5764 60.1983 -31.8163 -42.6289 -7.1250 0.0000 -0.0000 15.0437 -19.8690 -19.7986 0.0000 0.0000 0.0000 61.7889 -38.3827 82.5884 -73.5482 58.9522 -45.8025 0.0000 0.0000 21.7829 -66.4570 16.9111 -33.7281 7.1250 -0.0000 -0.0000 -22.9838 4.8080 -27.0210
3.8187 16.2960 -4.0435 31.6105 -80.5394 -27.8909 0.0000 0.0000 0.0000 -30.6406 22.0175 -15.5714 1.3624 7.3879 20.8697 -0.0827 -17.0543 -11.1630 0.0081 0.5830 1.6019 0.0000 0.0000 0.0000 6.9611 -1.1223 -32.0444 -5.9330 -14.3631 44.7122 -0.9784 -7.8416 -23.0903 -0.0050 -0.4564 1.2541 -4.0478 -0.7626 -1.6549 -3.8573 -1.0166 -0.6729 -1.7106 -0.5394 0.2350 -7.1810 -7.5676 -3.7108 22.4660 -10.0199 -5.6626 7.7684 -5.2661 0.6098 0.0000 -0.0000 0.0000 -45.8147 30.2407 90.2225 93.8431 -59.9441 -63.3276 -0.0000 -0.0000 3.6359 59.9406 -31.7478 -42.2770 -7.1250 0.0000 -0.0000 14.9369 -19.6007 -19.6098 0.0000 -0.0000 0.0000 61.7467 -38.3756 82.6341 -73.5896 58.9576 -45.8379 0.0000 0.0000 21.7791 -66.4676 16.9322 -33.7735 7.1250 -0.0000 -0.0000 -22.9834 4.8527 -27.0374
3.8303 16.2883 -4.0482 31.3574 -80.5245 -27.6495 0.0000 0.0000 0.0000 -30.6378 21.7587 -15.4797 1.3586 7.3781 20.8403 -0.0181 -16.7356 -11.5799 0.0076 0.5620 1.5443 0.0000 0.0000 0.0000 6.9937 -1.2378 -32.1886 -5.9625 -14.3919 44.8309 -0.9757 -7.7648 -23.0093 -0.0047 -0.4433 1.2180 -4.0113 -0.7518 -1.5595 -3.8533 -1.0061 -0.6312 -1.7255 -0.5340 0.2239 -7.1612 -7.6020 -3.6909 22.5214 -10.0455 -5.8266 7.7860 -5.2915 0.5664 0.0000 -0.0000 0.0000 -45.8079 30.2310 90.2002 93.8277 -59.9446 -63.3143 -0.0000 -0.0000 3.6753 59.7082 -31.7195 -41.9881 -7.1250 0.0000 -0.0000 14.8284 -19.3983 -19.4288 0.0000 -0.0000 0.0000 61.6957 -38.3639 82.6848 -73.6390 58.9640 -45.8803 0.0000 0.0000 21.7881 -66.4755 16.9515 -33.8128 7.1250 -0.0000 -0.0000 -22.9821 4.8921 -27.0502
3.8427 16.2801 -4.0525 31.0432 -80.5059 -27.3540 0.0000 0.0000 0.0000 -30.6360 21.5408 -15.4306 1.3602 7.3822 20.8528 0.0419 -16.4413 -11.9723 0.0072 0.5479 1.5056 0.0000 0.0000 0.0000 7.0342 -1.3830 -32.3417 -5.9937 -14.4222 44.9563 -0.9722 -7.6758 -22.9127 -0.0044 -0.4292 1.1793 -3.9663 -0.7399 -1.4494 -3.8464 -0.9949 -0.5865 -1.7420 -0.5281 0.2075 -7.1437 -7.6335 -3.6681 22.5822 -10.0665 -5.9954 7.8064 -5.3151 0.5210 0.0000 -0.0000 0.0000 -45.8016 30.2081 90.1931 93.7948 -59.9455 -63.2858 -0.0000 -0.0000 3.6920 59.5299 -31.7226 -41.7874 -7.1250 0.0000 -0.0000 14.7362 -19.2723 -19.2824 0.0000 -0.0000 0.0000 61.6379 -38.3458 82.7411 -73.6866 58.9702 -45.9211 0.0000 0.0000 21.8065 -66.4872 16.9722 -33.8589 7.1250 -0.0000 -0.0000 -22.9824 4.9371 -27.0675
3.8556 16.2721 -4.0562 30.7054 -80.4828 -27.0412 0.0000 0.0000 0.0000 -30.6358 21.3889 -15.4309 1.3674 7.4009 20.9086 0.0918 -16.2154 -12.3126 0.0073 0.5502 1.5119 0.0000 0.0000 0.0000 7.0759 -1.5574 -32.5035 -6.0258 -14.4533 45.0852 -0.9663 -7.5860 -22.7944 -0.0038 -0.4005 1.1005 -3.9171 -0.7263 -1.3296 -3.8398 -0.9818 -0.5372 -1.7609 -0.5213 0.1903 -7.1314 -7.6612 -3.6374 22.6575 -10.0808 -6.1750 7.8335 -5.3368 0.4714 -0.0000 0.0000 0.0000 -45.7952 30.1738 90.2051 93.7520 -59.9467 -63.2487 -0.0000 -0.0000 3.6926 59.4374 -31.7449 -41.7004 -7.1250 0.0000 -0.0000 14.6809 -19.2309 -19.1998 -0.0000 0.0000 0.0000 61.5810 -38.3196 82.7971 -73.7224 58.9748 -45.9517 0.0000 0.0000 21.8287 -66.4982 16.9945 -33.9066 7.1250 -0.0000 -0.0000 -22.9819 4.9843 -27.0845
3.8687 16.2640 -4.0596 30.4178 -80.4530 -26.7819 0.0000 0.0000 0.0000 -30.6442 21.3238 -15.4860 1.3793 7.4317 21.0008 0.1266 -16.0990 -12.5758 0.0080 0.5764 1.5838 0.0000 0.0000 0.0000 7.1084 -1.7566 -32.6721 -6.0588 -14.4851 45.2173 -0.9598 -7.4822 -22.6611 -0.0033 -0.3723 1.0230 -3.8774 -0.7116 -1.2065 -3.8375 -0.9673 -0.4838 -1.7791 -0.5138 0.1756 -7.1329 -7.6841 -3.5921 22.7626 -10.0868 -6.3708 7.8742 -5.3567 0.4164 0.0000 0.0000 0.0000 -45.7889 30.1311 90.2348 93.7107 -59.9479 -63.2130 -0.0000 -0.0000 3.6685 59.4507 -31.7904 -41.7520 -7.1250 0.0000 -0.0000 14.6713 -19.2925 -19.1959 0.0000 0.0000 0.0000 61.5291 -38.2819 82.8585 -73.7333 58.9762 -45.9610 0.0000 0.0000 21.8490 -66.5150 17.0077 -33.9479 7.1250 -0.0000 -0.0000 -22.9869 5.0217 -27.1055
3.8817 16.2563 -4.0631 30.2138 -80.4201 -26.6003 0.0000 0.0000 0.0000 -30.6612 21.3565 -15.6005 1.3943 7.4704 21.1167 0.1417 -16.1270 -12.7392 0.0100 0.6456 1.7740 0.0000 0.0000 0.0000 7.1291 -1.9656 -32.8553 -6.0933 -14.5181 45.3549 -0.9530 -7.3711 -22.5194 -0.0028 -0.3434 0.9437 -3.8528 -0.6953 -1.0917 -3.8426 -0.9500 -0.4300 -1.7967 -0.5052 0.1661 -7.1462 -7.7017 -3.5220 22.9016 -10.0829 -6.5894 7.9303 -5.3753 0.3521 0.0000 -0.0000 0.0000 -45.7797 30.0843 90.2829 93.6806 -59.9487 -63.1869 -0.0000 -0.0000 3.6260 59.5735 -31.8529 -41.9415 -7.1250 0.0000 -0.0000 14.7113 -19.4528 -19.2753 0.0000 -0.0000 0.0000 61.4943 -38.2301 82.9253 -73.6951 58.9713 -45.9283 0.0000 0.0000 21.8525 -66.5467 17.0143 -33.9980 7.1250 -0.0000 -0.0000 -23.0015 5.0621 -27.1410
3.8944 16.2490 -4.0669 30.1436 -80.3819 -26.5448 0.0000 0.0000 0.0000 -30.6922 21.4959 -15.7685 1.4106 7.5119 21.2412 0.1343 -16.3203 -12.7895 0.0140 0.7649 2.1021 0.0000 0.0000 0.0000 7.1284 -2.1748 -33.0540 -6.1300 -14.5532 45.5013 -0.9450 -7.2647 -22.3708 -0.0022 -0.3054 0.8391 -3.8518 -0.6772 -0.9920 -3.8593 -0.9296 -0.3754 -1.8131 -0.4953 0.1660 -7.1723 -7.7137 -3.4253 23.0763 -10.0692 -6.8271 8.0027 -5.3925 0.2796 -0.0000 0.0000 0.0000 -45.7680 30.0363 90.3433 93.6726 -59.9490 -63.1800 -0.0000 -0.0000 3.5678 59.8027 -31.9227 -42.2591 -7.1250 0.0000 -0.0000 14.8029 -19.6995 -19.4389 -0.0000 0.0000 0.0000 61.4841 -38.1614 82.9982 -73.5928 58.9580 -45.8406 0.0000 0.0000 21.8271 -66.5980 17.0158 -34.0657 7.1250 -0.0000 -0.0000 -23.0278 5.1126 -27.1967
